<svg width="357" height="135" viewBox="0 0 357 135" fill="none" xmlns="http://www.w3.org/2000/svg">
<path d="M32.4587 22.1395H40.8108C40.9424 21.9029 41.0222 21.6377 41.0443 21.3636C41.0665 21.0894 41.0303 20.8135 40.9386 20.5564L32.4609 9.48837L32.4587 22.1395Z" fill="#EF9645"/>
<path d="M25.9607 52.2692C25.85 51.4952 25.7008 50.7284 25.5138 49.972C24.1689 44.7238 23.0408 42.5023 23.5224 37.0015C24.1515 33.2619 24.1146 25.7567 33.2474 26.9253C35.6596 27.2346 39.4147 29.1138 41.5645 29.0737C42.7945 29.0501 43.6904 26.3422 43.7706 25.4403C43.8813 24.1985 41.8942 22.0879 41.0634 21.7716C39.1337 21.0918 37.1948 20.4433 35.2475 19.8262C32.9936 19.1156 33.1107 15.801 32.9675 14.6205C32.936 14.3455 32.9797 14.0664 33.0931 13.8182C33.2066 13.5701 33.3847 13.3638 33.6053 13.2253C34.0609 12.9325 34.4188 13.2064 34.8613 13.5204L36.7812 15.0502C37.8593 16.0559 34.8852 17.9777 35.69 18.2987C35.69 18.2987 39.4971 19.8546 41.1284 20.178C42.0222 20.3551 45.1069 16.5682 45.287 14.3467C45.428 12.5996 37.9157 4.70728 32.5597 1.64288C30.6768 0.566329 29.5726 -0.0592988 28.3318 0.0044444C26.8501 0.0799919 26.3837 0.717424 24.5398 2.43613C16.1945 10.2057 8.0944 27.008 6.90562 30.7263C2.03339 45.9798 1.27196 54.0162 1.09842 58.5561C0.990857 59.9365 0.935854 61.3212 0.933552 62.7065C1.07456 62.7065 -1.23574 74.5108 0.933552 76.8717C3.10285 79.2325 12.4872 79.2325 12.4872 79.2325C34.1802 88.65 74.464 86.1923 74.464 62.1564C74.464 33.42 33.653 37.2328 25.9607 52.2692Z" fill="#FFDC5D"/>
<path d="M42.9749 75.7566C36.1878 74.9511 30.887 71.193 30.5885 70.9771C30.108 70.6312 29.7688 70.0839 29.6455 69.4556C29.5223 68.8272 29.6251 68.1693 29.9312 67.6265C30.2374 67.0838 30.7219 66.7006 31.2782 66.5614C31.8344 66.4222 32.4169 66.5383 32.8974 66.8841C32.9833 66.9448 41.495 72.9301 49.7491 70.4433C54.3132 69.0701 58.0547 65.312 60.8683 59.2805C61.1337 58.7111 61.5886 58.2841 62.1328 58.0934C62.6769 57.9028 63.2659 57.9641 63.77 58.264C64.2741 58.5638 64.6521 59.0776 64.8209 59.6923C64.9897 60.307 64.9354 60.9723 64.6699 61.5417C61.2656 68.8348 56.607 73.4129 50.823 75.1428C48.1232 75.9483 45.4492 76.0502 42.9749 75.7566Z" fill="#EF9645"/>
<path d="M96.8672 69.4375L102.141 50.6406H106.43L105.047 58.0234L99.7734 76H96.1875L96.8672 69.4375ZM94.1953 50.6406L97.9688 69.4141L98.3203 76H94.1016L87.6797 50.6406H94.1953ZM111.258 69.1094L114.938 50.6406H121.477L115.055 76H110.859L111.258 69.1094ZM107.016 50.6406L112.266 69.2969L112.992 76H109.383L104.109 58.0469L102.773 50.6406H107.016ZM131.625 56.1719V76H124.875V50.6406H131.227L131.625 56.1719ZM139.266 50.4766L139.148 56.7344C138.82 56.6875 138.422 56.6484 137.953 56.6172C137.5 56.5703 137.086 56.5469 136.711 56.5469C135.758 56.5469 134.93 56.6719 134.227 56.9219C133.539 57.1562 132.961 57.5078 132.492 57.9766C132.039 58.4453 131.695 59.0156 131.461 59.6875C131.242 60.3594 131.117 61.125 131.086 61.9844L129.727 61.5625C129.727 59.9219 129.891 58.4141 130.219 57.0391C130.547 55.6484 131.023 54.4375 131.648 53.4062C132.289 52.375 133.07 51.5781 133.992 51.0156C134.914 50.4531 135.969 50.1719 137.156 50.1719C137.531 50.1719 137.914 50.2031 138.305 50.2656C138.695 50.3125 139.016 50.3828 139.266 50.4766ZM149.203 39.9766V76H142.453V39.9766H149.203ZM165.188 50.6406L154.172 63.2031L148.266 69.1797L145.805 64.3047L150.492 58.3516L157.078 50.6406H165.188ZM158.18 76L150.68 64.2812L155.344 60.2031L165.961 76H158.18ZM167.016 63.5781V63.0859C167.016 61.2266 167.281 59.5156 167.812 57.9531C168.344 56.375 169.117 55.0078 170.133 53.8516C171.148 52.6953 172.398 51.7969 173.883 51.1562C175.367 50.5 177.07 50.1719 178.992 50.1719C180.914 50.1719 182.625 50.5 184.125 51.1562C185.625 51.7969 186.883 52.6953 187.898 53.8516C188.93 55.0078 189.711 56.375 190.242 57.9531C190.773 59.5156 191.039 61.2266 191.039 63.0859V63.5781C191.039 65.4219 190.773 67.1328 190.242 68.7109C189.711 70.2734 188.93 71.6406 187.898 72.8125C186.883 73.9688 185.633 74.8672 184.148 75.5078C182.664 76.1484 180.961 76.4688 179.039 76.4688C177.117 76.4688 175.406 76.1484 173.906 75.5078C172.422 74.8672 171.164 73.9688 170.133 72.8125C169.117 71.6406 168.344 70.2734 167.812 68.7109C167.281 67.1328 167.016 65.4219 167.016 63.5781ZM173.766 63.0859V63.5781C173.766 64.6406 173.859 65.6328 174.047 66.5547C174.234 67.4766 174.531 68.2891 174.938 68.9922C175.359 69.6797 175.906 70.2188 176.578 70.6094C177.25 71 178.07 71.1953 179.039 71.1953C179.977 71.1953 180.781 71 181.453 70.6094C182.125 70.2188 182.664 69.6797 183.07 68.9922C183.477 68.2891 183.773 67.4766 183.961 66.5547C184.164 65.6328 184.266 64.6406 184.266 63.5781V63.0859C184.266 62.0547 184.164 61.0859 183.961 60.1797C183.773 59.2578 183.469 58.4453 183.047 57.7422C182.641 57.0234 182.102 56.4609 181.43 56.0547C180.758 55.6484 179.945 55.4453 178.992 55.4453C178.039 55.4453 177.227 55.6484 176.555 56.0547C175.898 56.4609 175.359 57.0234 174.938 57.7422C174.531 58.4453 174.234 59.2578 174.047 60.1797C173.859 61.0859 173.766 62.0547 173.766 63.0859ZM210.188 69.9297V50.6406H216.938V76H210.586L210.188 69.9297ZM210.938 64.7266L212.93 64.6797C212.93 66.3672 212.734 67.9375 212.344 69.3906C211.953 70.8281 211.367 72.0781 210.586 73.1406C209.805 74.1875 208.82 75.0078 207.633 75.6016C206.445 76.1797 205.047 76.4688 203.438 76.4688C202.203 76.4688 201.062 76.2969 200.016 75.9531C198.984 75.5938 198.094 75.0391 197.344 74.2891C196.609 73.5234 196.031 72.5469 195.609 71.3594C195.203 70.1562 195 68.7109 195 67.0234V50.6406H201.75V67.0703C201.75 67.8203 201.836 68.4531 202.008 68.9688C202.195 69.4844 202.453 69.9062 202.781 70.2344C203.109 70.5625 203.492 70.7969 203.93 70.9375C204.383 71.0781 204.883 71.1484 205.43 71.1484C206.82 71.1484 207.914 70.8672 208.711 70.3047C209.523 69.7422 210.094 68.9766 210.422 68.0078C210.766 67.0234 210.938 65.9297 210.938 64.7266ZM234.516 50.6406V55.4219H219.75V50.6406H234.516ZM223.406 44.3828H230.156V68.3594C230.156 69.0938 230.25 69.6562 230.438 70.0469C230.641 70.4375 230.938 70.7109 231.328 70.8672C231.719 71.0078 232.211 71.0781 232.805 71.0781C233.227 71.0781 233.602 71.0625 233.93 71.0312C234.273 70.9844 234.562 70.9375 234.797 70.8906L234.82 75.8594C234.242 76.0469 233.617 76.1953 232.945 76.3047C232.273 76.4141 231.531 76.4688 230.719 76.4688C229.234 76.4688 227.938 76.2266 226.828 75.7422C225.734 75.2422 224.891 74.4453 224.297 73.3516C223.703 72.2578 223.406 70.8203 223.406 69.0391V44.3828ZM252.07 68.9922C252.07 68.5078 251.93 68.0703 251.648 67.6797C251.367 67.2891 250.844 66.9297 250.078 66.6016C249.328 66.2578 248.242 65.9453 246.82 65.6641C245.539 65.3828 244.344 65.0312 243.234 64.6094C242.141 64.1719 241.188 63.6484 240.375 63.0391C239.578 62.4297 238.953 61.7109 238.5 60.8828C238.047 60.0391 237.82 59.0781 237.82 58C237.82 56.9375 238.047 55.9375 238.5 55C238.969 54.0625 239.633 53.2344 240.492 52.5156C241.367 51.7812 242.43 51.2109 243.68 50.8047C244.945 50.3828 246.367 50.1719 247.945 50.1719C250.148 50.1719 252.039 50.5234 253.617 51.2266C255.211 51.9297 256.43 52.8984 257.273 54.1328C258.133 55.3516 258.562 56.7422 258.562 58.3047H251.812C251.812 57.6484 251.672 57.0625 251.391 56.5469C251.125 56.0156 250.703 55.6016 250.125 55.3047C249.562 54.9922 248.828 54.8359 247.922 54.8359C247.172 54.8359 246.523 54.9688 245.977 55.2344C245.43 55.4844 245.008 55.8281 244.711 56.2656C244.43 56.6875 244.289 57.1562 244.289 57.6719C244.289 58.0625 244.367 58.4141 244.523 58.7266C244.695 59.0234 244.969 59.2969 245.344 59.5469C245.719 59.7969 246.203 60.0312 246.797 60.25C247.406 60.4531 248.156 60.6406 249.047 60.8125C250.875 61.1875 252.508 61.6797 253.945 62.2891C255.383 62.8828 256.523 63.6953 257.367 64.7266C258.211 65.7422 258.633 67.0781 258.633 68.7344C258.633 69.8594 258.383 70.8906 257.883 71.8281C257.383 72.7656 256.664 73.5859 255.727 74.2891C254.789 74.9766 253.664 75.5156 252.352 75.9062C251.055 76.2812 249.594 76.4688 247.969 76.4688C245.609 76.4688 243.609 76.0469 241.969 75.2031C240.344 74.3594 239.109 73.2891 238.266 71.9922C237.438 70.6797 237.023 69.3359 237.023 67.9609H243.422C243.453 68.8828 243.688 69.625 244.125 70.1875C244.578 70.75 245.148 71.1562 245.836 71.4062C246.539 71.6562 247.297 71.7812 248.109 71.7812C248.984 71.7812 249.711 71.6641 250.289 71.4297C250.867 71.1797 251.305 70.8516 251.602 70.4453C251.914 70.0234 252.07 69.5391 252.07 68.9922ZM263.344 72.7422C263.344 71.7422 263.688 70.9062 264.375 70.2344C265.078 69.5625 266.008 69.2266 267.164 69.2266C268.32 69.2266 269.242 69.5625 269.93 70.2344C270.633 70.9062 270.984 71.7422 270.984 72.7422C270.984 73.7422 270.633 74.5781 269.93 75.25C269.242 75.9219 268.32 76.2578 267.164 76.2578C266.008 76.2578 265.078 75.9219 264.375 75.25C263.688 74.5781 263.344 73.7422 263.344 72.7422ZM282.375 50.6406L286.57 58.3516L290.883 50.6406H298.078L290.906 63.0391L298.406 76H291.188L286.617 67.8438L282.047 76H274.828L282.328 63.0391L275.156 50.6406H282.375ZM308.883 73.1406L315.609 50.6406H322.852L312.656 79.8203C312.438 80.4609 312.141 81.1484 311.766 81.8828C311.406 82.6172 310.914 83.3125 310.289 83.9688C309.68 84.6406 308.906 85.1875 307.969 85.6094C307.047 86.0312 305.914 86.2422 304.57 86.2422C303.93 86.2422 303.406 86.2031 303 86.125C302.594 86.0469 302.109 85.9375 301.547 85.7969V80.8516C301.719 80.8516 301.898 80.8516 302.086 80.8516C302.273 80.8672 302.453 80.875 302.625 80.875C303.516 80.875 304.242 80.7734 304.805 80.5703C305.367 80.3672 305.82 80.0547 306.164 79.6328C306.508 79.2266 306.781 78.6953 306.984 78.0391L308.883 73.1406ZM306.07 50.6406L311.578 69.0156L312.539 76.1641L307.945 76.6562L298.828 50.6406H306.07ZM345.727 70.7266V76H326.461V70.7266H345.727ZM345.352 54.5312L329.18 76H324.656V71.9922L340.758 50.6406H345.352V54.5312ZM342.961 50.6406V55.9375H325.031V50.6406H342.961Z" fill="black"/>
</svg>
